<?xml version="1.0" encoding="utf-8"?>
<svg version="1.1" x="0px" y="0px" viewBox="2.277 -3.319 565.918 524.522" style="enable-background:new 0 0 512 512;" xmlns="http://www.w3.org/2000/svg">
  <g>
    <g>
      <g>
        <polygon points="26.947,250.275 17.026,253.182 14.226,243.798 24.146,240.892 26.947,250.158 36.873,247.252 39.674,256.52      29.754,259.543    "/>
        <path d="M502.416,42.786c2.485,1.506,3.349,4.634,1.832,7.12c-0.422,0.862-1.074,1.505-1.832,1.938l-18.978,10.994     c-2.486,1.412-5.709,0.547-7.119-1.938c-1.506-2.476-0.644-5.604,1.832-7.119l11.228-6.467l-11.228-6.477     c-2.476-1.4-3.338-4.634-1.832-7.108c1.41-2.485,4.633-3.35,7.119-1.948L502.416,42.786z"/>
        <path d="M497.992,218.997c3.139,3.233,5.076,7.551,5.076,12.405c0,4.845-2.054,9.373-5.182,12.617l-0.21,0.21     c-3.243,3.128-7.666,4.96-12.405,4.96c-4.961,0-9.374-1.938-12.617-5.17l-0.21-0.222c-3.139-3.233-5.077-7.551-5.077-12.396     c0-4.971,2.054-9.384,5.287-12.627l0.105-0.105c3.244-3.128,7.666-5.171,12.512-5.171c4.854,0,9.277,2.043,12.511,5.276     L497.992,218.997z M492.601,231.402c0-2.054-0.748-3.886-2.148-5.287c-1.295-1.295-3.139-2.158-5.181-2.158     c-2.044,0-3.877,0.863-5.287,2.158c-1.285,1.401-2.148,3.233-2.148,5.287c0,2.043,0.863,3.876,2.148,5.276     c1.41,1.295,3.243,2.159,5.287,2.159c2.042,0,3.886-0.864,5.181-2.159C491.853,235.278,492.601,233.445,492.601,231.402z"/>
        <path d="M496.918,458.08c2.801,0,5.182,2.369,5.182,5.285c0,2.803-2.381,5.173-5.182,5.173h-27.171     c-2.801,0-5.181-2.37-5.181-5.173c0-2.916,2.38-5.285,5.181-5.285H496.918z"/>
        <path d="M494.979,302.353c2.149,4.749,1.401,10.247-2.053,14.238l-15.312,17.577v75.921c0,0.221,0,0.431-0.106,0.758l0.106,6.466     c0,5.075-2.919,9.814-7.445,11.974c-45.612,22.538-104.703,35.48-162.077,35.48c-39.366,0-95.873-6.256-140.952-36.133     c-48.097-31.7-98.458-95.761-95.762-180.202c2.48-75.057,51.55-146.986,125.097-183.436     c33.216-16.386,73.219-25.127,115.598-25.127c61.155,0,119.066,18.44,158.748,50.687c2.907,2.37,4.739,5.824,4.854,9.595     c0.222,3.781-1.189,7.446-3.886,10.036l-39.683,39.788c-1.62,1.621-3.664,2.812-5.938,3.349l-25.759,7.225     c-1.085,0.326-2.381,0.432-3.455,0.432c-4.107,0-7.982-1.833-10.469-5.065c-3.338-4.212-3.769-10.036-1.179-14.67l8.625-15.313     c-16.609-14.565-34.827-25.022-54.458-31.174c-12.406-3.875-25.127-5.823-37.743-5.823c-19.735,0-39.688,4.749-59.424,14.133     c-58.665,28.15-90.696,95.982-77.753,164.89c14.665,78.616,75.378,135.561,150.868,141.699     c7.014,0.536,14.027,0.863,21.029,0.863c17.902,0,35.153-1.938,49.931-5.718c3.664-1.181,5.938-1.938,7.224-2.476     c0-0.652,0-1.296,0-1.833v-57.585l-70.202,2.043c-0.105,0-0.327,0-0.432,0c-5.931,0-11.215-3.99-12.732-9.814     c-1.611-5.824,0.979-12.185,6.371-15.091l43.138-23.833c2.054-1.086,4.201-1.622,6.465-1.622h116.688     C488.178,294.591,492.927,297.613,494.979,302.353z M464.25,329.208l18.651-21.349H366.214l-43.241,23.834l84.009-2.485v71.285     c0,10.026,0.104,11.649-16.935,17.04c-16.935,4.424-35.471,6.256-53.595,6.256c-7.444,0-14.88-0.221-22.104-0.863     c-83.794-6.793-147.744-71.719-162.842-152.494c-14.343-76.772,22.648-149.355,85.083-179.338     c19.52-9.268,41.521-15.419,65.143-15.419c13.375,0,27.38,1.938,41.724,6.467c24.919,7.772,47.455,21.79,67.085,41.199     l-13.585,24.369l25.77-7.119l39.693-39.682c-39.366-32.026-95.34-47.771-150.345-47.771c-39.136,0-77.748,7.982-109.774,23.832     c-66.647,32.995-115.176,98.563-117.656,171.893c-2.48,77.111,43.353,138.045,89.832,168.776     c35.912,23.727,84.226,33.857,133.618,33.857c56.067,0,113.663-13.048,156.157-34.069v-7.339V329.208z"/>
        <path d="M478.804,471.991c2.802,0,5.182,2.369,5.182,5.286c0,2.802-2.38,5.171-5.182,5.171h-58.026     c-2.907,0-5.276-2.369-5.276-5.171c0-2.917,2.369-5.286,5.276-5.286H478.804z"/>
        <path d="M210.709,16.795c0.758,2.801-0.97,5.603-3.776,6.361l-9.162,2.485c-2.807,0.747-5.718-0.864-6.366-3.677     c-0.753-2.8,0.863-5.603,3.67-6.36l9.272-2.475C207.148,12.372,209.955,13.993,210.709,16.795z"/>
        <path d="M197.771,39.228c0.648,2.8-0.974,5.718-3.775,6.36c-2.696,0.758-5.607-0.864-6.361-3.665l-2.374-9.058     c-0.754-2.812,0.863-5.612,3.665-6.36c2.806-0.759,5.607,0.853,6.365,3.665L197.771,39.228z"/>
        <path d="M190.546,12.478c0.753,2.812-0.863,5.718-3.671,6.477c-2.8,0.642-5.607-0.97-6.36-3.665l-2.375-8.741     c-0.753-2.802,0.975-5.603,3.671-6.36c2.801-0.759,5.713,0.862,6.466,3.664L190.546,12.478z"/>
        <path d="M184.723,23.692c0.753,2.813-0.864,5.719-3.671,6.478l-9.488,2.474c-2.802,0.759-5.608-0.862-6.361-3.664     c-0.758-2.801,0.864-5.603,3.665-6.361l9.489-2.591C181.163,19.27,183.964,20.997,184.723,23.692z"/>
        <path d="M181.811,488.378c2.479,2.591,4.097,6.045,4.097,9.815c0,3.78-1.617,7.341-4.097,9.814     c-2.48,2.486-5.935,3.992-9.815,3.992c-3.776,0-7.225-1.506-9.704-3.992c-2.48-2.474-4.098-6.034-4.098-9.814     c0-3.771,1.617-7.225,4.098-9.815c2.479-2.475,5.928-3.98,9.704-3.98C175.876,484.397,179.33,485.903,181.811,488.378z      M175.444,498.193c0-0.969-0.433-1.832-0.97-2.369c-0.647-0.644-1.511-1.074-2.479-1.074c-0.863,0-1.728,0.431-2.375,1.074     c-0.643,0.537-0.969,1.4-0.969,2.369c0,0.968,0.326,1.727,0.969,2.381c0.647,0.641,1.512,0.968,2.375,0.968     c0.969,0,1.832-0.327,2.479-0.968C175.012,499.92,175.444,499.161,175.444,498.193z"/>
        <polygon points="29.754,259.543 32.555,268.927 22.634,271.843 19.833,262.564    "/>
        <polygon points="16.921,253.182 19.723,262.564 9.802,265.472 7,256.088    "/>
      </g>
    </g>
  </g>
</svg>